{
  "accessors": [
    {
      "bufferView": 2,
      "componentType": 5126,
      "count": 441,
      "max": [
        110.52752685546875,
        1036.1260986328125,
        101.51114654541016
      ],
      "min": [
        -54.99998092651367,
        0.0,
        -54.9999885559082
      ],
      "type": "VEC3"
    },
    {
      "bufferView": 2,
      "byteOffset": 5292,
      "componentType": 5126,
      "count": 441,
      "max": [
        0.998539388179779,
        0.9833318591117859,
        0.999653697013855
      ],
      "min": [
        -0.99930739402771,
        -0.44400936365127563,
        -0.9989200234413147
      ],
      "type": "VEC3"
    },
    {
      "bufferView": 1,
      "componentType": 5126,
      "count": 441,
      "max": [
        1.099410057067871,
        7.09699010848999
      ],
      "min": [
        0.0004900000058114529,
        0.0004900000058114529
      ],
      "type": "VEC2"
    },
    {
      "bufferView": 0,
      "componentType": 5125,
      "count": 2352,
      "type": "SCALAR"
    },
    {
      "bufferView": 2,
      "byteOffset": 10584,
      "componentType": 5126,
      "count": 6804,
      "max": [
        433.1045227050781,
        1370.986328125,
        403.6918029785156
      ],
      "min": [
        -344.5357360839844,
        574.0573120117188,
        -267.1134338378906
      ],
      "type": "VEC3"
    },
    {
      "bufferView": 2,
      "byteOffset": 92232,
      "componentType": 5126,
      "count": 6804,
      "max": [
        0.9986124038696289,
        0.9995307326316833,
        0.9995611906051636
      ],
      "min": [
        -0.9984245300292969,
        -0.9972197413444519,
        -0.9991183280944824
      ],
      "type": "VEC3"
    },
    {
      "bufferView": 1,
      "byteOffset": 3528,
      "componentType": 5126,
      "count": 6804,
      "max": [
        0.9992899894714355,
        16.584009170532227
      ],
      "min": [
        0.0007099999929778278,
        0.0007099999929778278
      ],
      "type": "VEC2"
    },
    {
      "bufferView": 0,
      "byteOffset": 9408,
      "componentType": 5125,
      "count": 34944,
      "type": "SCALAR"
    },
    {
      "bufferView": 2,
      "byteOffset": 173880,
      "componentType": 5126,
      "count": 28003,
      "max": [
        506.7168884277344,
        1419.3929443359375,
        475.35455322265625
      ],
      "min": [
        -420.6340637207031,
        785.22705078125,
        -351.0427551269531
      ],
      "type": "VEC3"
    },
    {
      "bufferView": 2,
      "byteOffset": 509916,
      "componentType": 5126,
      "count": 28003,
      "max": [
        0.9999553561210632,
        0.9996878504753113,
        0.9999653697013855
      ],
      "min": [
        -0.99991774559021,
        -0.9999971389770508,
        -0.9999558329582214
      ],
      "type": "VEC3"
    },
    {
      "bufferView": 1,
      "byteOffset": 57960,
      "componentType": 5126,
      "count": 28003,
      "max": [
        0.577970027923584,
        0.999019980430603
      ],
      "min": [
        0.46880999207496643,
        0.0009800000116229057
      ],
      "type": "VEC2"
    },
    {
      "bufferView": 0,
      "byteOffset": 149184,
      "componentType": 5125,
      "count": 63003,
      "type": "SCALAR"
    },
    {
      "bufferView": 2,
      "byteOffset": 845952,
      "componentType": 5126,
      "count": 18592,
      "max": [
        449.0047607421875,
        993.021728515625,
        357.4891662597656
      ],
      "min": [
        -362.935791015625,
        501.2302551269531,
        -293.1141662597656
      ],
      "type": "VEC3"
    },
    {
      "bufferView": 2,
      "byteOffset": 1069056,
      "componentType": 5126,
      "count": 18592,
      "max": [
        0.9994093775749207,
        0.9972803592681885,
        0.9999698996543884
      ],
      "min": [
        -0.9999305009841919,
        -0.9999971389770508,
        -0.9999808073043823
      ],
      "type": "VEC3"
    },
    {
      "bufferView": 1,
      "byteOffset": 281984,
      "componentType": 5126,
      "count": 18592,
      "max": [
        0.577970027923584,
        0.999019980430603
      ],
      "min": [
        0.46880999207496643,
        0.0009800000116229057
      ],
      "type": "VEC2"
    },
    {
      "bufferView": 0,
      "byteOffset": 401196,
      "componentType": 5125,
      "count": 41829,
      "type": "SCALAR"
    }
  ],
  "asset": {
    "extras": {
      "author": "Next Spring (https://sketchfab.com/NextSpring)",
      "license": "CC-BY-4.0 (http://creativecommons.org/licenses/by/4.0/)",
      "source": "https://sketchfab.com/3d-models/realistic-palm-tree-5-free-67dc5881b2ab44f98c4bc209ee9d26ee",
      "title": "Realistic Palm Tree 5 (Free)"
    },
    "generator": "Sketchfab-16.3.0",
    "version": "2.0"
  },
  "bufferViews": [
    {
      "buffer": 0,
      "byteLength": 568512,
      "name": "floatBufferViews",
      "target": 34963
    },
    {
      "buffer": 0,
      "byteLength": 430720,
      "byteOffset": 568512,
      "byteStride": 8,
      "name": "floatBufferViews",
      "target": 34962
    },
    {
      "buffer": 0,
      "byteLength": 1292160,
      "byteOffset": 999232,
      "byteStride": 12,
      "name": "floatBufferViews",
      "target": 34962
    }
  ],
  "buffers": [
    {
      "byteLength": 2291392,
      "uri": "scene.bin"
    }
  ],
  "images": [
    {
      "uri": "textures/palm_trunk_6_0Mat_baseColor.png"
    },
    {
      "uri": "textures/palm_leaf_1_-_copy_2Mat_baseColor.png"
    }
  ],
  "materials": [
    {
      "doubleSided": true,
      "name": "palm_trunk_6_0Mat",
      "pbrMetallicRoughness": {
        "baseColorTexture": {
          "index": 0
        },
        "metallicFactor": 0.0,
        "roughnessFactor": 0.9577051494623774
      }
    },
    {
      "doubleSided": true,
      "name": "trunk_2_1_1Mat",
      "pbrMetallicRoughness": {
        "baseColorFactor": [
          0.8,
          0.8,
          0.8,
          1.0
        ],
        "metallicFactor": 0.0,
        "roughnessFactor": 0.9577051494623774
      }
    },
    {
      "alphaMode": "MASK",
      "doubleSided": true,
      "name": "palm_leaf_1_-_copy_2Mat",
      "pbrMetallicRoughness": {
        "baseColorTexture": {
          "index": 1
        },
        "metallicFactor": 0.0,
        "roughnessFactor": 0.9577051494623774
      }
    },
    {
      "alphaMode": "MASK",
      "doubleSided": true,
      "name": "palm_leaf_1_-_copy_3Mat",
      "pbrMetallicRoughness": {
        "baseColorTexture": {
          "index": 1
        },
        "metallicFactor": 0.0,
        "roughnessFactor": 0.9577051494623774
      }
    }
  ],
  "meshes": [
    {
      "name": "palm_trunk_6_0_palm_trunk_6_0Mat_0",
      "primitives": [
        {
          "attributes": {
            "NORMAL": 1,
            "POSITION": 0,
            "TEXCOORD_0": 2
          },
          "indices": 3,
          "material": 0,
          "mode": 4
        }
      ]
    },
    {
      "name": "trunk_2_1_1_trunk_2_1_1Mat_0",
      "primitives": [
        {
          "attributes": {
            "NORMAL": 5,
            "POSITION": 4,
            "TEXCOORD_0": 6
          },
          "indices": 7,
          "material": 1,
          "mode": 4
        }
      ]
    },
    {
      "name": "palm_leaf_1 - copy_2_palm_leaf_1 - copy_2Mat_0",
      "primitives": [
        {
          "attributes": {
            "NORMAL": 9,
            "POSITION": 8,
            "TEXCOORD_0": 10
          },
          "indices": 11,
          "material": 2,
          "mode": 4
        }
      ]
    },
    {
      "name": "palm_leaf_1 - copy_3_palm_leaf_1 - copy_3Mat_0",
      "primitives": [
        {
          "attributes": {
            "NORMAL": 13,
            "POSITION": 12,
            "TEXCOORD_0": 14
          },
          "indices": 15,
          "material": 3,
          "mode": 4
        }
      ]
    }
  ],
  "nodes": [
    {
      "children": [
        1
      ],
      "matrix": [
        1.0,
        0.0,
        0.0,
        0.0,
        0.0,
        2.220446049250313e-16,
        -1.0,
        0.0,
        0.0,
        1.0,
        2.220446049250313e-16,
        0.0,
        0.0,
        0.0,
        0.0,
        1.0
      ],
      "name": "Sketchfab_model"
    },
    {
      "children": [
        2
      ],
      "matrix": [
        0.009999999776482582,
        0.0,
        0.0,
        0.0,
        0.0,
        0.0,
        0.009999999776482582,
        0.0,
        0.0,
        -0.009999999776482582,
        0.0,
        0.0,
        0.0,
        0.0,
        0.0,
        1.0
      ],
      "name": "High_Poly_Palm_1.fbx"
    },
    {
      "children": [
        3
      ],
      "name": "RootNode"
    },
    {
      "children": [
        4,
        5
      ],
      "name": "palm_trunk_6_0"
    },
    {
      "mesh": 0,
      "name": "palm_trunk_6_0_palm_trunk_6_0Mat_0"
    },
    {
      "children": [
        6,
        7
      ],
      "name": "trunk_2_1_1"
    },
    {
      "mesh": 1,
      "name": "trunk_2_1_1_trunk_2_1_1Mat_0"
    },
    {
      "children": [
        8,
        9
      ],
      "name": "palm_leaf_1 - copy_2"
    },
    {
      "mesh": 2,
      "name": "palm_leaf_1 - copy_2_palm_leaf_1 - copy_2Mat_0"
    },
    {
      "children": [
        10
      ],
      "name": "palm_leaf_1 - copy_3"
    },
    {
      "mesh": 3,
      "name": "palm_leaf_1 - copy_3_palm_leaf_1 - copy_3Mat_0"
    }
  ],
  "samplers": [
    {
      "magFilter": 9729,
      "minFilter": 9987,
      "wrapS": 10497,
      "wrapT": 10497
    }
  ],
  "scene": 0,
  "scenes": [
    {
      "name": "Sketchfab_Scene",
      "nodes": [
        0
      ]
    }
  ],
  "textures": [
    {
      "sampler": 0,
      "source": 0
    },
    {
      "sampler": 0,
      "source": 1
    }
  ]
}
