{
  "accessors": [
    {
      "bufferView": 2,
      "componentType": 5126,
      "count": 19629,
      "max": [
        1.0198721885681152,
        6.861743927001953,
        0.5128246545791626
      ],
      "min": [
        -1.4169049263000488,
        -0.011590957641601563,
        -0.5099925398826599
      ],
      "type": "VEC3"
    },
    {
      "bufferView": 2,
      "byteOffset": 235548,
      "componentType": 5126,
      "count": 19629,
      "max": [
        0.9999945163726807,
        0.9997891187667847,
        0.9999992847442627
      ],
      "min": [
        -0.9997808933258057,
        -0.9999995827674866,
        -0.9999406337738037
      ],
      "type": "VEC3"
    },
    {
      "bufferView": 3,
      "componentType": 5126,
      "count": 19629,
      "max": [
        0.9999917149543762,
        0.999997079372406,
        0.9999948143959045,
        1.0
      ],
      "min": [
        -0.9999818205833435,
        -0.9999457597732544,
        -0.9999983906745911,
        -1.0
      ],
      "type": "VEC4"
    },
    {
      "bufferView": 1,
      "componentType": 5126,
      "count": 19629,
      "max": [
        0.9893077611923218,
        0.9858059287071228
      ],
      "min": [
        0.019417086616158485,
        0.01144552230834961
      ],
      "type": "VEC2"
    },
    {
      "bufferView": 1,
      "byteOffset": 157032,
      "componentType": 5126,
      "count": 19629,
      "max": [
        0.9893077611923218,
        0.9858059287071228
      ],
      "min": [
        0.019417086616158485,
        0.01144552230834961
      ],
      "type": "VEC2"
    },
    {
      "bufferView": 1,
      "byteOffset": 314064,
      "componentType": 5126,
      "count": 19629,
      "max": [
        0.9893077611923218,
        0.9858059287071228
      ],
      "min": [
        0.019417086616158485,
        0.01144552230834961
      ],
      "type": "VEC2"
    },
    {
      "bufferView": 1,
      "byteOffset": 471096,
      "componentType": 5126,
      "count": 19629,
      "max": [
        0.9893077611923218,
        0.9858059287071228
      ],
      "min": [
        0.019417086616158485,
        0.01144552230834961
      ],
      "type": "VEC2"
    },
    {
      "bufferView": 1,
      "byteOffset": 628128,
      "componentType": 5126,
      "count": 19629,
      "max": [
        0.9893077611923218,
        0.9858059287071228
      ],
      "min": [
        0.019417086616158485,
        0.01144552230834961
      ],
      "type": "VEC2"
    },
    {
      "bufferView": 0,
      "componentType": 5125,
      "count": 90126,
      "type": "SCALAR"
    }
  ],
  "asset": {
    "extras": {
      "author": "upeglnf951 (https://sketchfab.com/upeglnf951)",
      "license": "CC-BY-4.0 (http://creativecommons.org/licenses/by/4.0/)",
      "source": "https://sketchfab.com/3d-models/cactus-2bb7c79c178c4f40b60357b815052cc8",
      "title": "Cactus"
    },
    "generator": "Sketchfab-15.18.0",
    "version": "2.0"
  },
  "bufferViews": [
    {
      "buffer": 0,
      "byteLength": 360504,
      "name": "floatBufferViews",
      "target": 34963
    },
    {
      "buffer": 0,
      "byteLength": 785160,
      "byteOffset": 360504,
      "byteStride": 8,
      "name": "floatBufferViews",
      "target": 34962
    },
    {
      "buffer": 0,
      "byteLength": 471096,
      "byteOffset": 1145664,
      "byteStride": 12,
      "name": "floatBufferViews",
      "target": 34962
    },
    {
      "buffer": 0,
      "byteLength": 314064,
      "byteOffset": 1616760,
      "byteStride": 16,
      "name": "floatBufferViews",
      "target": 34962
    }
  ],
  "buffers": [
    {
      "byteLength": 1930824,
      "uri": "scene.bin"
    }
  ],
  "extensionsRequired": [
    "KHR_materials_pbrSpecularGlossiness"
  ],
  "extensionsUsed": [
    "KHR_materials_pbrSpecularGlossiness"
  ],
  "images": [
    {
      "uri": "textures/material_0_diffuse.png"
    },
    {
      "uri": "textures/material_0_specularGlossiness.png"
    },
    {
      "uri": "textures/material_0_normal.png"
    },
    {
      "uri": "textures/material_0_occlusion.png"
    }
  ],
  "materials": [
    {
      "doubleSided": true,
      "extensions": {
        "KHR_materials_pbrSpecularGlossiness": {
          "diffuseFactor": [
            1.0,
            1.0,
            1.0,
            1.0
          ],
          "diffuseTexture": {
            "index": 0
          },
          "glossinessFactor": 1.0,
          "specularFactor": [
            1.0,
            1.0,
            1.0
          ],
          "specularGlossinessTexture": {
            "index": 1
          }
        }
      },
      "name": "material_0",
      "normalTexture": {
        "index": 2
      },
      "occlusionTexture": {
        "index": 3
      }
    }
  ],
  "meshes": [
    {
      "name": "Object_0",
      "primitives": [
        {
          "attributes": {
            "NORMAL": 1,
            "POSITION": 0,
            "TANGENT": 2,
            "TEXCOORD_0": 3,
            "TEXCOORD_1": 4,
            "TEXCOORD_2": 5,
            "TEXCOORD_3": 6,
            "TEXCOORD_4": 7
          },
          "indices": 8,
          "material": 0,
          "mode": 4
        }
      ]
    }
  ],
  "nodes": [
    {
      "children": [
        1
      ],
      "matrix": [
        1.0,
        0.0,
        0.0,
        0.0,
        0.0,
        2.220446049250313e-16,
        -1.0,
        0.0,
        0.0,
        1.0,
        2.220446049250313e-16,
        0.0,
        0.0,
        0.0,
        0.0,
        1.0
      ],
      "name": "Sketchfab_model"
    },
    {
      "children": [
        2
      ],
      "name": "root"
    },
    {
      "children": [
        3
      ],
      "matrix": [
        1.0,
        0.0,
        0.0,
        0.0,
        0.0,
        2.220446049250313e-16,
        1.0,
        0.0,
        0.0,
        -1.0,
        2.220446049250313e-16,
        0.0,
        0.0,
        0.0,
        0.0,
        1.0
      ],
      "name": "GLTF_SceneRootNode"
    },
    {
      "children": [
        4
      ],
      "matrix": [
        0.009999999776482582,
        0.0,
        0.0,
        0.0,
        0.0,
        0.009999999776482582,
        0.0,
        0.0,
        0.0,
        0.0,
        0.009999999776482582,
        0.0,
        0.0,
        0.0,
        0.0,
        1.0
      ],
      "name": "RootNode.0_0"
    },
    {
      "children": [
        5
      ],
      "name": "cactus.1_1"
    },
    {
      "mesh": 0,
      "name": "Object_5"
    }
  ],
  "samplers": [
    {
      "magFilter": 9729,
      "minFilter": 9987,
      "wrapS": 10497,
      "wrapT": 10497
    }
  ],
  "scene": 0,
  "scenes": [
    {
      "name": "Sketchfab_Scene",
      "nodes": [
        0
      ]
    }
  ],
  "textures": [
    {
      "sampler": 0,
      "source": 0
    },
    {
      "sampler": 0,
      "source": 1
    },
    {
      "sampler": 0,
      "source": 2
    },
    {
      "sampler": 0,
      "source": 3
    }
  ]
}
