{
  "accessors": [
    {
      "bufferView": 2,
      "componentType": 5126,
      "count": 1337,
      "max": [
        249.11099243164063,
        237.63670349121094,
        146.6717987060547
      ],
      "min": [
        -235.51589965820313,
        -237.63670349121094,
        -145.0166015625
      ],
      "type": "VEC3"
    },
    {
      "bufferView": 2,
      "byteOffset": 16044,
      "componentType": 5126,
      "count": 1337,
      "max": [
        0.9996015429496765,
        1.0,
        0.9997877478599548
      ],
      "min": [
        -0.9978958368301392,
        -1.0,
        -0.9999980926513672
      ],
      "type": "VEC3"
    },
    {
      "bufferView": 3,
      "componentType": 5126,
      "count": 1337,
      "max": [
        0.9998692870140076,
        0.9999996423721313,
        0.9994774460792542,
        1.0
      ],
      "min": [
        -0.9998429417610168,
        -1.0,
        -0.9999830722808838,
        -1.0
      ],
      "type": "VEC4"
    },
    {
      "bufferView": 1,
      "componentType": 5126,
      "count": 1337,
      "max": [
        0.978600025177002,
        0.9958000183105469
      ],
      "min": [
        0.013299999758601189,
        0.01549999974668026
      ],
      "type": "VEC2"
    },
    {
      "bufferView": 0,
      "componentType": 5125,
      "count": 5946,
      "type": "SCALAR"
    },
    {
      "bufferView": 2,
      "byteOffset": 32088,
      "componentType": 5126,
      "count": 1119,
      "max": [
        233.56149291992188,
        237.50599670410156,
        254.39199829101563
      ],
      "min": [
        -234.66180419921875,
        -237.50599670410156,
        137.03500366210938
      ],
      "type": "VEC3"
    },
    {
      "bufferView": 2,
      "byteOffset": 45516,
      "componentType": 5126,
      "count": 1119,
      "max": [
        0.9995601773262024,
        1.0,
        1.0
      ],
      "min": [
        -0.9996901154518127,
        -1.0,
        -0.9999991655349731
      ],
      "type": "VEC3"
    },
    {
      "bufferView": 3,
      "byteOffset": 21392,
      "componentType": 5126,
      "count": 1119,
      "max": [
        1.0,
        0.9999499320983887,
        0.993085503578186,
        1.0
      ],
      "min": [
        -0.9999998211860657,
        -1.0,
        -0.9914980530738831,
        -1.0
      ],
      "type": "VEC4"
    },
    {
      "bufferView": 1,
      "byteOffset": 10696,
      "componentType": 5126,
      "count": 1119,
      "max": [
        0.9937000274658203,
        0.9958999752998352
      ],
      "min": [
        0.00559999980032444,
        0.006899999920278788
      ],
      "type": "VEC2"
    },
    {
      "bufferView": 0,
      "byteOffset": 23784,
      "componentType": 5125,
      "count": 5130,
      "type": "SCALAR"
    },
    {
      "bufferView": 2,
      "byteOffset": 58944,
      "componentType": 5126,
      "count": 280,
      "max": [
        237.4468994140625,
        22.287500381469727,
        147.6562957763672
      ],
      "min": [
        219.3061065673828,
        -22.287500381469727,
        49.2224006652832
      ],
      "type": "VEC3"
    },
    {
      "bufferView": 2,
      "byteOffset": 62304,
      "componentType": 5126,
      "count": 280,
      "max": [
        0.9999673366546631,
        0.9999370574951172,
        0.9952417612075806
      ],
      "min": [
        -0.9963661432266235,
        -0.9999370574951172,
        -0.9908552169799805
      ],
      "type": "VEC3"
    },
    {
      "bufferView": 3,
      "byteOffset": 39296,
      "componentType": 5126,
      "count": 280,
      "max": [
        0.9933992028236389,
        0.9999998211860657,
        0.9963656067848206,
        1.0
      ],
      "min": [
        -0.9929866790771484,
        -0.9104058146476746,
        -0.9965832233428955,
        -1.0
      ],
      "type": "VEC4"
    },
    {
      "bufferView": 1,
      "byteOffset": 19648,
      "componentType": 5126,
      "count": 280,
      "max": [
        0.600600004196167,
        0.8844000101089478
      ],
      "min": [
        0.12999999523162842,
        0.7146999835968018
      ],
      "type": "VEC2"
    },
    {
      "bufferView": 0,
      "byteOffset": 44304,
      "componentType": 5125,
      "count": 1188,
      "type": "SCALAR"
    },
    {
      "bufferView": 4,
      "componentType": 5126,
      "count": 101,
      "max": [
        3.3333332538604736
      ],
      "min": [
        0.0
      ],
      "type": "SCALAR"
    },
    {
      "bufferView": 5,
      "componentType": 5126,
      "count": 101,
      "max": [
        1.7262102215730644e-32,
        7.774159710639594e-17,
        8.631051107865322e-33,
        1.0
      ],
      "min": [
        -1.7262102215730644e-32,
        -7.774159710639594e-17,
        -1.2946577396481953e-32,
        1.0
      ],
      "type": "VEC4"
    },
    {
      "bufferView": 4,
      "byteOffset": 404,
      "componentType": 5126,
      "count": 101,
      "max": [
        3.3333332538604736
      ],
      "min": [
        0.0
      ],
      "type": "SCALAR"
    },
    {
      "bufferView": 5,
      "byteOffset": 1616,
      "componentType": 5126,
      "count": 101,
      "max": [
        8.658055134711708e-17,
        0.0027698257472366095,
        8.658055134711708e-17,
        1.0
      ],
      "min": [
        -8.659558618193084e-17,
        -0.7375966906547546,
        -8.659558618193084e-17,
        0.6752415299415588
      ],
      "type": "VEC4"
    },
    {
      "bufferView": 4,
      "byteOffset": 808,
      "componentType": 5126,
      "count": 101,
      "max": [
        3.3333332538604736
      ],
      "min": [
        0.0
      ],
      "type": "SCALAR"
    },
    {
      "bufferView": 5,
      "byteOffset": 3232,
      "componentType": 5126,
      "count": 101,
      "max": [
        0.19030998647212982,
        0.7071006894111633,
        0.6668595671653748,
        0.7071067690849304
      ],
      "min": [
        -0.7071067690849304,
        -0.6668595671653748,
        -0.7071006894111633,
        -0.19030998647212982
      ],
      "type": "VEC4"
    }
  ],
  "animations": [
    {
      "channels": [
        {
          "sampler": 0,
          "target": {
            "node": 7,
            "path": "rotation"
          }
        },
        {
          "sampler": 1,
          "target": {
            "node": 10,
            "path": "rotation"
          }
        },
        {
          "sampler": 2,
          "target": {
            "node": 6,
            "path": "rotation"
          }
        }
      ],
      "name": "Open-Close",
      "samplers": [
        {
          "input": 15,
          "interpolation": "LINEAR",
          "output": 16
        },
        {
          "input": 17,
          "interpolation": "LINEAR",
          "output": 18
        },
        {
          "input": 19,
          "interpolation": "LINEAR",
          "output": 20
        }
      ]
    }
  ],
  "asset": {
    "extras": {
      "author": "shedmon (https://sketchfab.com/shedmon)",
      "license": "CC-BY-4.0 (http://creativecommons.org/licenses/by/4.0/)",
      "source": "https://sketchfab.com/3d-models/chest-fbfe052480ba485db5b914f7d0711db6",
      "title": "Chest"
    },
    "generator": "Sketchfab-12.65.0",
    "version": "2.0"
  },
  "bufferViews": [
    {
      "buffer": 0,
      "byteLength": 49056,
      "name": "floatBufferViews",
      "target": 34963
    },
    {
      "buffer": 0,
      "byteLength": 21888,
      "byteOffset": 49056,
      "byteStride": 8,
      "name": "floatBufferViews",
      "target": 34962
    },
    {
      "buffer": 0,
      "byteLength": 65664,
      "byteOffset": 70944,
      "byteStride": 12,
      "name": "floatBufferViews",
      "target": 34962
    },
    {
      "buffer": 0,
      "byteLength": 43776,
      "byteOffset": 136608,
      "byteStride": 16,
      "name": "floatBufferViews",
      "target": 34962
    },
    {
      "buffer": 0,
      "byteLength": 1212,
      "byteOffset": 180384,
      "name": "floatBufferViews"
    },
    {
      "buffer": 0,
      "byteLength": 4848,
      "byteOffset": 181596,
      "byteStride": 16,
      "name": "floatBufferViews"
    }
  ],
  "buffers": [
    {
      "byteLength": 186444,
      "uri": "scene.bin"
    }
  ],
  "images": [
    {
      "uri": "textures/Chest_baseColor.png"
    },
    {
      "uri": "textures/Chest_metallicRoughness.png"
    },
    {
      "uri": "textures/Chest_normal.png"
    }
  ],
  "materials": [
    {
      "doubleSided": true,
      "name": "Chest",
      "normalTexture": {
        "index": 2
      },
      "occlusionTexture": {
        "index": 1
      },
      "pbrMetallicRoughness": {
        "baseColorTexture": {
          "index": 0
        },
        "metallicRoughnessTexture": {
          "index": 1
        }
      }
    }
  ],
  "meshes": [
    {
      "name": "bot_Chest_0",
      "primitives": [
        {
          "attributes": {
            "NORMAL": 1,
            "POSITION": 0,
            "TANGENT": 2,
            "TEXCOORD_0": 3
          },
          "indices": 4,
          "material": 0,
          "mode": 4
        }
      ]
    },
    {
      "name": "top_Chest_0",
      "primitives": [
        {
          "attributes": {
            "NORMAL": 6,
            "POSITION": 5,
            "TANGENT": 7,
            "TEXCOORD_0": 8
          },
          "indices": 9,
          "material": 0,
          "mode": 4
        }
      ]
    },
    {
      "name": "zamok_Chest_0",
      "primitives": [
        {
          "attributes": {
            "NORMAL": 11,
            "POSITION": 10,
            "TANGENT": 12,
            "TEXCOORD_0": 13
          },
          "indices": 14,
          "material": 0,
          "mode": 4
        }
      ]
    }
  ],
  "nodes": [
    {
      "children": [
        1
      ],
      "matrix": [
        0.016103191301226616,
        0.0,
        0.0,
        0.0,
        0.0,
        3.575626750513065e-18,
        -0.016103191301226616,
        0.0,
        0.0,
        0.016103191301226616,
        3.575626750513065e-18,
        0.0,
        0.0,
        0.0,
        0.0,
        1.0
      ],
      "name": "Sketchfab_model"
    },
    {
      "children": [
        2
      ],
      "matrix": [
        1.0,
        0.0,
        0.0,
        0.0,
        0.0,
        0.0,
        1.0,
        0.0,
        0.0,
        -1.0,
        0.0,
        0.0,
        0.0,
        0.0,
        0.0,
        1.0
      ],
      "name": "eba5df07acd14f49b51ba8b31ba540d7.fbx"
    },
    {
      "children": [
        3
      ],
      "name": "Object_2"
    },
    {
      "children": [
        4,
        6
      ],
      "name": "RootNode"
    },
    {
      "children": [
        5
      ],
      "name": "bot",
      "rotation": [
        -0.7071068286895752,
        -0.0,
        0.0,
        0.7071068286895752
      ],
      "scale": [
        0.08925600349903107,
        0.08925600349903107,
        0.08925600349903107
      ],
      "translation": [
        -0.4586181640625,
        14.053924560546875,
        1.1843793392181396
      ]
    },
    {
      "mesh": 0,
      "name": "bot_Chest_0"
    },
    {
      "children": [
        7,
        10
      ],
      "name": "Group001",
      "rotation": [
        -0.7071068286895752,
        -0.0,
        0.0,
        0.7071068286895752
      ],
      "translation": [
        -21.047937393188477,
        26.782270431518555,
        1.1843795776367188
      ]
    },
    {
      "children": [
        8
      ],
      "name": "top",
      "scale": [
        0.08925600349903107,
        0.08925600349903107,
        0.08925600349903107
      ],
      "translation": [
        0.00447845458984375,
        2.384185791015625e-07,
        0.0037689208984375
      ]
    },
    {
      "children": [
        9
      ],
      "matrix": [
        1.0,
        0.0,
        -0.0,
        0.0,
        0.0,
        1.0,
        0.0,
        0.0,
        0.0,
        0.0,
        1.0,
        0.0,
        230.62725830078125,
        -5.120953845434012e-14,
        -142.6473846435547,
        1.0
      ],
      "name": "Object_8"
    },
    {
      "mesh": 1,
      "name": "top_Chest_0"
    },
    {
      "children": [
        11
      ],
      "name": "zamok",
      "scale": [
        0.08925600349903107,
        0.08925600349903107,
        0.08925600349903107
      ],
      "translation": [
        41.13169860839844,
        2.384185791015625e-07,
        0.01930999755859375
      ]
    },
    {
      "children": [
        12
      ],
      "matrix": [
        1.0,
        0.0,
        -0.0,
        0.0,
        0.0,
        1.0,
        0.0,
        0.0,
        0.0,
        0.0,
        1.0,
        0.0,
        -230.15151977539063,
        5.110390328142214e-14,
        -142.82150268554688,
        1.0
      ],
      "name": "Object_11"
    },
    {
      "mesh": 2,
      "name": "zamok_Chest_0"
    }
  ],
  "samplers": [
    {
      "magFilter": 9729,
      "minFilter": 9987,
      "wrapS": 10497,
      "wrapT": 10497
    }
  ],
  "scene": 0,
  "scenes": [
    {
      "name": "Sketchfab_Scene",
      "nodes": [
        0
      ]
    }
  ],
  "textures": [
    {
      "sampler": 0,
      "source": 0
    },
    {
      "sampler": 0,
      "source": 1
    },
    {
      "sampler": 0,
      "source": 2
    }
  ]
}
